<svg xmlns="http://www.w3.org/2000/svg" viewBox="0 0 34.02 34.02"><defs><style>.cls-1{fill:#fdc334;}.cls-2{fill:#fff;fill-rule:evenodd;}</style></defs><title>amazon</title><g id="Layer_2" data-name="Layer 2"><g id="Capa_1" data-name="Capa 1"><path class="cls-1" d="M17,34A17,17,0,1,0,0,17,17,17,0,0,0,17,34"/><path class="cls-2" d="M23.05,22.27a.58.58,0,0,0-.25.06l-.27.12-.13.05-.17.07h0a15.88,15.88,0,0,1-5.52,1.21h-.19c-2.79,0-5.07-1.29-7.36-2.57a.52.52,0,0,0-.24-.06.42.42,0,0,0-.29.11.39.39,0,0,0-.12.29.45.45,0,0,0,.18.35c2.16,1.87,4.52,3.61,7.69,3.61h.19a12.49,12.49,0,0,0,6.08-1.84h0a6.08,6.08,0,0,0,.68-.47.54.54,0,0,0,.23-.42A.51.51,0,0,0,23.05,22.27Z"/><path class="cls-2" d="M25.51,21.24h0a.81.81,0,0,0-.12-.42h0a.59.59,0,0,0-.23-.15,2.9,2.9,0,0,0-1-.14,4.46,4.46,0,0,0-.94.1v0l-.33.11h0l-.18.06h0a2.94,2.94,0,0,0-.6.33.47.47,0,0,0-.21.37.35.35,0,0,0,.12.27.39.39,0,0,0,.25.09h.08c.16,0,.39-.06.67-.09a6.62,6.62,0,0,1,.7,0,1.87,1.87,0,0,1,.38,0l.1,0h0a.35.35,0,0,1,0,.09,3.28,3.28,0,0,1-.18.84c-.1.33-.23.65-.31.87a.45.45,0,0,0,0,.17.36.36,0,0,0,.11.26.37.37,0,0,0,.25.1h0a.51.51,0,0,0,.31-.12,3.84,3.84,0,0,0,1.13-2.61Z"/><path class="cls-2" d="M17.92,13.24c-.49,0-1.05.07-1.62.15a8.32,8.32,0,0,0-2.44.6,3.61,3.61,0,0,0-2.33,3.53,3.06,3.06,0,0,0,3.23,3.34,6.18,6.18,0,0,0,1.54-.19,4.68,4.68,0,0,0,2-1.39,5.89,5.89,0,0,0,1.24,1.43.52.52,0,0,0,.53,0c.45-.38,1.24-1.05,1.65-1.43a.41.41,0,0,0,0-.56,2.81,2.81,0,0,1-.83-2V13.31c0-1.43.11-2.74-.94-3.71a5,5,0,0,0-3.27-1.09H16.3c-1.91.11-3.94.94-4.39,3.3a.35.35,0,0,0,.3.45l2.1.26a.48.48,0,0,0,.37-.41A1.72,1.72,0,0,1,16.3,10.8h.15a1.47,1.47,0,0,1,1.2.56,2.81,2.81,0,0,1,.26,1.58Zm-.41,4.46a1.82,1.82,0,0,1-1.2,1c-.07,0-.19,0-.3,0-.83,0-1.31-.64-1.31-1.58a2,2,0,0,1,1.61-2A7.4,7.4,0,0,1,17.92,15v.45A4,4,0,0,1,17.51,17.7Z"/></g></g></svg>