<svg xmlns="http://www.w3.org/2000/svg" viewBox="0 0 34.02 34.02"><defs><style>.cls-1{fill:#d5e080;}.cls-2{fill:#fff;}</style></defs><title>android</title><g id="Layer_2" data-name="Layer 2"><g id="Capa_1" data-name="Capa 1"><path class="cls-1" d="M17,34A17,17,0,1,0,0,17,17,17,0,0,0,17,34"/><path class="cls-2" d="M19.55,10l.18-.28.18-.27.41-.62a.16.16,0,1,0-.27-.18l-.44.66-.19.28-.19.28a5.51,5.51,0,0,0-3.92,0l-.19-.28L15,9.29l-.44-.66a.16.16,0,0,0-.27.18l.41.62.18.27L15,10a3.74,3.74,0,0,0-2.34,3.29h9.22A3.74,3.74,0,0,0,19.55,10Zm-4.24,2a.49.49,0,1,1,.49-.49A.49.49,0,0,1,15.31,12Zm3.95,0a.49.49,0,1,1,.49-.49A.49.49,0,0,1,19.26,12Z"/><path class="cls-2" d="M12.74,13.94h-.07v7.24a1,1,0,0,0,1,1h.75a1,1,0,0,0,0,.27v2.08a1,1,0,0,0,2,0V22.5a1,1,0,0,0,0-.27H18.2a1,1,0,0,0,0,.27v2.08a1,1,0,0,0,2,0V22.5a1,1,0,0,0,0-.27h.75a1,1,0,0,0,1-1V13.94H12.74Z"/><path class="cls-2" d="M11,13.94a1,1,0,0,0-1,1v4.22a1,1,0,0,0,2,0V14.92A1,1,0,0,0,11,13.94Z"/><path class="cls-2" d="M23.54,13.94a1,1,0,0,0-1,1v4.22a1,1,0,0,0,2,0V14.92A1,1,0,0,0,23.54,13.94Z"/></g></g></svg>