<svg xmlns="http://www.w3.org/2000/svg" viewBox="0 0 34.02 34.02"><defs><style>.cls-1{fill:#fbc866;}.cls-2{fill:#fff;fill-rule:evenodd;}</style></defs><title>blogger</title><g id="Layer_2" data-name="Layer 2"><g id="Capa_1" data-name="Capa 1"><path class="cls-1" d="M17,34A17,17,0,1,0,0,17,17,17,0,0,0,17,34"/><path class="cls-2" d="M25.43,15.57l-.14-.29L25,15.08c-.31-.25-1.89,0-2.32-.37s-.34-.78-.44-1.45a4.18,4.18,0,0,0-.48-1.83A5.91,5.91,0,0,0,17.66,8.5H13.9a5.39,5.39,0,0,0-5.37,5.38v6.27a5.38,5.38,0,0,0,5.37,5.36h6.17a5.39,5.39,0,0,0,5.37-5.36l0-4.34ZM14,12.9h3a1,1,0,1,1,0,2.05H14a1,1,0,1,1,0-2.05ZM20,21.09H14a1,1,0,1,1,0-2H20a1,1,0,1,1,0,2Z"/></g></g></svg>