<svg xmlns="http://www.w3.org/2000/svg" viewBox="0 0 34.02 34.02"><defs><style>.cls-1{fill:#90d3f1;}.cls-2{fill:#fff;}</style></defs><title>dropbox_1</title><g id="Layer_2" data-name="Layer 2"><g id="Capa_1" data-name="Capa 1"><path class="cls-1" d="M17,34A17,17,0,1,0,0,17,17,17,0,0,0,17,34"/><polygon class="cls-2" points="8.5 17.9 13.51 21.17 17.01 18.25 11.96 15.14 8.5 17.9"/><polygon class="cls-2" points="13.51 9.1 8.5 12.37 11.96 15.14 17.01 12.02 13.51 9.1"/><polygon class="cls-2" points="25.51 12.37 20.51 9.1 17.01 12.02 22.05 15.14 25.51 12.37"/><polygon class="cls-2" points="17.01 18.25 20.51 21.17 25.51 17.9 22.05 15.14 17.01 18.25"/><polygon class="cls-2" points="17.02 18.88 13.51 21.79 12.01 20.81 12.01 21.91 17.02 24.91 22.03 21.91 22.03 20.81 20.53 21.79 17.02 18.88"/></g></g></svg>