<svg xmlns="http://www.w3.org/2000/svg" viewBox="0 0 34.02 34.02"><defs><style>.cls-1{fill:#e83b3b;}.cls-2{fill:#fff;fill-rule:evenodd;}</style></defs><title>ebay</title><g id="Layer_2" data-name="Layer 2"><g id="Capa_1" data-name="Capa 1"><path class="cls-1" d="M17,34A17,17,0,1,0,0,17,17,17,0,0,0,17,34"/><path class="cls-2" d="M17.78,16a1.57,1.57,0,0,0-.92-.24,1.5,1.5,0,0,0-1.35.62h0V13.55H13.83v2.37l.07,0a2,2,0,0,1,1.19,1,2.88,2.88,0,0,1,.17,1.43h0a.19.19,0,0,1-.19.18H13.83v.16H15a.19.19,0,0,1,.18.2,1.26,1.26,0,0,1-.36.83,2.48,2.48,0,0,1-.87.56.14.14,0,0,1-.11.05l0,0v.91H15.4v-.59h0a1.43,1.43,0,0,0,1.4.71c1.28,0,1.57-1,1.64-1.93h0a1.53,1.53,0,0,1-1.14-.91h0a2.28,2.28,0,0,1-.1-.27,2.71,2.71,0,0,1-.09-.72h0a2.33,2.33,0,0,1,.18-1,1.47,1.47,0,0,1,.48-.6Zm-.92,2.52c0,1.37-.09,1.94-.7,1.94s-.67-.57-.67-1.94c0-1.07,0-1.82.67-1.82s.7.76.7,1.82Z"/><path class="cls-2" d="M15,18.93H12c0,.41-.22.87-1.3.87-1.33,0-1.36-.85-1.36-1.42h5.77a1.9,1.9,0,0,0-1.25-2.26,3.77,3.77,0,0,0-.91-.25,11.64,11.64,0,0,0-2.27-.19c-4,0-4.4,1.12-4.4,2.42,0,1.5.5,2.56,4.4,2.56a13.22,13.22,0,0,0,2.29-.2,4.37,4.37,0,0,0,.88-.28s0,0,0,0c.73-.29,1.12-.7,1.14-1.23Zm-4.37-2.42c1.45,0,1.4.66,1.4,1.11H9.31c0-.39,0-1.11,1.36-1.11Z"/><path class="cls-2" d="M17.93,16.15a1.6,1.6,0,0,0-.62,1.43,1.55,1.55,0,0,0,1.18,1.71,2,2,0,0,0,.4,0,1.67,1.67,0,0,0,1.54-.82h0l.08.72h1.55c0-.34-.08-.69-.08-1v-1l-.16-.31h0L20.19,13.8l-.06-.12-.52,0a2.66,2.66,0,0,0-1.55.37,1.4,1.4,0,0,0-.62,1.33h1.65c0-.43,0-.84.62-.84s.67.34.67.8v.44a4.25,4.25,0,0,0-2.45.41Zm1.63,2.24c-.55,0-.63-.48-.63-.86,0-1,.63-.9,1.45-.94,0,.6.15,1.81-.82,1.81Z"/><polygon class="cls-2" points="25.55 12.98 23.88 16.24 22.33 12.98 19.96 12.98 20.35 13.71 22.01 16.77 22.68 18.02 22.68 20.7 24.86 20.7 24.86 18.02 27.76 12.98 25.55 12.98 25.55 12.98"/></g></g></svg>