<svg xmlns="http://www.w3.org/2000/svg" viewBox="0 0 34.02 34.02"><defs><style>.googlepluscontainer{fill:#4b4b4c;}.icon{fill:#fff;}</style></defs><title>googleplus</title><g id="Layer_2" data-name="Layer 2"><g id="Capa_1" data-name="Capa 1"><path class="googlepluscontainer" d="M17,34A17,17,0,1,0,0,17,17,17,0,0,0,17,34"/><path class="icon" fill="#FFF" d="M14.19,24.63c-2,0-3.48-1.28-3.48-2.82s1.81-2.76,3.83-2.74a4.42,4.42,0,0,1,1.31.21C17,20,17.74,20.47,18,21.34a2.34,2.34,0,0,1,.06.54c0,1.54-1,2.74-3.83,2.74m.53-9c-1.36,0-2.65-1.52-2.88-3.3s.68-3.15,2-3.11,2.65,1.47,2.88,3.25-.68,3.19-2,3.15m2.81,2.64c-.48-.34-1.39-1.16-1.39-1.64s.16-.84,1-1.51a3.54,3.54,0,0,0,1.49-2.75,3.14,3.14,0,0,0-1.7-3h1.67l1.18-.85H14.54c-2.36,0-4.58,1.79-4.58,3.86a3.81,3.81,0,0,0,4,3.83h.49a2.15,2.15,0,0,0-.27,1,2,2,0,0,0,.72,1.46H14c-2.93,0-5.18,1.86-5.18,3.79s2.47,3.09,5.39,3.09c3.33,0,5.18-1.89,5.18-3.79a3.67,3.67,0,0,0-1.84-3.42m7.66-2.48H23.15V13.71H21.5v2.05H19.45v1.65H21.5v2.05h1.65V17.42H25.2Z"/></g></g></svg>