<svg xmlns="http://www.w3.org/2000/svg" viewBox="0 0 34.02 34.02"><defs><style>.cls-1{fill:#cdcccc;}.cls-2{fill:#fff;}</style></defs><title>googledrive_1</title><g id="Layer_2" data-name="Layer 2"><g id="Capa_1" data-name="Capa 1"><path class="cls-1" d="M17,34A17,17,0,1,0,0,17,17,17,0,0,0,17,34"/><polygon class="cls-2" points="14.48 20.13 14.39 20.13 14.35 20.21 12.04 24.23 11.9 24.48 12.18 24.48 22.93 24.48 23.02 24.48 23.07 24.4 25.37 20.37 25.51 20.13 25.23 20.13 14.48 20.13"/><polygon class="cls-2" points="20.45 19.11 20.5 19.19 20.59 19.19 25.23 19.17 25.51 19.17 25.37 18.93 20 9.62 19.95 9.54 19.86 9.54 15.22 9.56 14.94 9.56 15.08 9.8 20.45 19.11"/><polygon class="cls-2" points="16.59 14.38 16.54 14.29 14.21 10.29 14.06 10.04 13.93 10.29 8.55 19.59 8.5 19.67 8.55 19.75 10.89 23.76 11.03 24.01 11.17 23.76 16.54 14.46 16.59 14.38"/></g></g></svg>