<svg version="1.1" xmlns="http://www.w3.org/2000/svg" xmlns:xlink="http://www.w3.org/1999/xlink" x="0px" y="0px"
	 viewBox="0 0 34 34" style="enable-background:new 0 0 34 34;" xml:space="preserve">
	<path id="Path_25762_00000030487979594328770920000003047365229712058549_" fill="#E3415C" d="M17,34c9.4,0,17-7.6,17-17S26.4,0,17,0
		S0,7.6,0,17S7.6,34,17,34"/>
	<path id="instagram-2_00000134238567225258171910000002956985629141770630_" fill="#FFFFFF" d="M17,12.2c-2.5,0-4.5,2-4.5,4.5
		c0,2.5,2,4.5,4.5,4.5s4.5-2,4.5-4.5l0,0C21.5,14.2,19.5,12.2,17,12.2C17,12.2,17,12.2,17,12.2z M17,19.6c-1.6,0-2.9-1.3-2.9-2.9
		s1.3-2.9,2.9-2.9s2.9,1.3,2.9,2.9l0,0C19.9,18.3,18.6,19.6,17,19.6z M22.7,12.1c0,0.6-0.5,1-1,1c-0.6,0-1-0.5-1-1s0.5-1,1-1l0,0
		C22.2,11,22.7,11.5,22.7,12.1C22.7,12.1,22.7,12.1,22.7,12.1L22.7,12.1z M25.6,13.1c0-1.4-0.5-2.7-1.4-3.6c-1-0.9-2.3-1.4-3.6-1.4
		c-1.4-0.1-5.7-0.1-7.2,0c-1.4,0-2.7,0.5-3.6,1.4c-0.9,1-1.4,2.3-1.4,3.6c-0.1,1.4-0.1,5.7,0,7.2c0,1.4,0.5,2.7,1.4,3.6
		c1,0.9,2.3,1.4,3.6,1.4c1.4,0.1,5.7,0.1,7.2,0c1.4,0,2.7-0.5,3.6-1.4c0.9-1,1.4-2.3,1.4-3.6C25.7,18.8,25.7,14.5,25.6,13.1
		L25.6,13.1z M23.8,21.8c-0.3,0.8-0.9,1.4-1.7,1.7c-1.1,0.5-3.9,0.3-5.1,0.3c-1.3,0-4,0.1-5.1-0.3c-0.8-0.3-1.4-0.9-1.7-1.7
		c-0.5-1.1-0.3-3.9-0.3-5.1s-0.1-4,0.3-5.1c0.3-0.8,0.9-1.4,1.6-1.7C13,9.5,15.7,9.6,17,9.6s4-0.1,5.1,0.3c0.8,0.3,1.4,0.9,1.7,1.7
		c0.5,1.1,0.3,3.9,0.3,5.1S24.2,20.7,23.8,21.8L23.8,21.8z"/>
</svg>
