<svg xmlns="http://www.w3.org/2000/svg" viewBox="0 0 34.02 34.02"><title>instagram</title><g id="" data-name="Layer 2"><g id="" data-name="Capa 1"><path class="container" fill="#E3415C" d="M17,34A17,17,0,1,0,0,17,17,17,0,0,0,17,34"/><path class="icon" fill="#FFF" d="M22.23,8.5H11.79a3.29,3.29,0,0,0-3.29,3.29V22.23a3.29,3.29,0,0,0,3.29,3.29H22.23a3.29,3.29,0,0,0,3.29-3.29V11.79A3.29,3.29,0,0,0,22.23,8.5Zm.94,2h.38v2.88H20.67V10.47Zm-8.59,4.8A3,3,0,1,1,14,17,3,3,0,0,1,14.58,15.26Zm9.27,7a1.63,1.63,0,0,1-1.63,1.63H11.79a1.63,1.63,0,0,1-1.63-1.63v-7H12.7a4.65,4.65,0,1,0,8.62,0h2.54Z"/></g></g></svg>