<?xml version="1.0" encoding="UTF-8"?><svg xmlns="http://www.w3.org/2000/svg" viewBox="0 0 34 34"><path fill="#69c9d0" d="M17,34c9.39,0,17-7.61,17-17S26.39,0,17,0,0,7.61,0,17s7.61,17,17,17"/><path fill="#fff" d="M17.38,8.29c.95-.01,1.9,0,2.84-.01,.03,1.14,.48,2.22,1.27,3.03,.85,.77,1.94,1.23,3.08,1.3v2.93c-1.06-.03-2.1-.27-3.06-.71-.41-.2-.8-.42-1.18-.68,0,2.12,0,4.25-.01,6.37-.06,1.03-.4,2.02-.98,2.87-.98,1.42-2.57,2.29-4.3,2.34-1.04,.05-2.07-.21-2.97-.75-1.49-.89-2.48-2.43-2.66-4.15-.01-.36-.02-.73,0-1.08,.3-3.01,2.98-5.21,5.99-4.91,.12,.01,.24,.03,.36,.05,.01,1.08-.03,2.15-.03,3.23-1.3-.46-2.73,.23-3.18,1.53h0c-.11,.39-.15,.79-.1,1.18,.2,1.24,1.29,2.14,2.55,2.09,.83-.02,1.58-.47,2.02-1.17,.16-.23,.26-.49,.3-.77,.07-1.3,.04-2.6,.05-3.9,0-2.93,0-5.86,.02-8.78Z"/></svg>