<svg xmlns="http://www.w3.org/2000/svg" viewBox="0 0 34.02 34.02"><defs><style>.cls-1{fill:#8cd0de;}.cls-2{fill:#fff;}</style></defs><title>vimeo</title><g id="Layer_2" data-name="Layer 2"><g id="Capa_1" data-name="Capa 1"><path class="cls-1" d="M17,34A17,17,0,1,0,0,17,17,17,0,0,0,17,34"/><path class="cls-2" d="M25.5,13.46q-.11,2.48-3.47,6.78-3.47,4.5-5.87,4.5-1.49,0-2.51-2.74l-1.37-5q-.76-2.75-1.64-2.75A5.27,5.27,0,0,0,9.3,15l-.8-1q1.26-1.1,2.48-2.21a5.61,5.61,0,0,1,2.52-1.53q2-.19,2.44,2.71.49,3.13.68,3.89.57,2.59,1.26,2.59.53,0,1.6-1.67a6.59,6.59,0,0,0,1.14-2.56q.15-1.45-1.14-1.45a3.25,3.25,0,0,0-1.26.27q1.26-4.08,4.8-4Q25.66,10.14,25.5,13.46Z"/></g></g></svg>