<svg xmlns="http://www.w3.org/2000/svg" viewBox="0 0 34.02 34.02"><defs><style>.cls-1{fill:#aecf74;}.cls-2{fill:#fff;}</style></defs><title>windows</title><g id="Layer_2" data-name="Layer 2"><g id="Capa_1" data-name="Capa 1"><path class="cls-1" d="M17,34A17,17,0,1,0,0,17,17,17,0,0,0,17,34"/><path class="cls-2" d="M14.59,22.8a5.34,5.34,0,0,0-3.13-1.09,8,8,0,0,0-3,.67l1.57-5.46.52-.2a9.36,9.36,0,0,1,2.29-.51h.31a5.14,5.14,0,0,1,2.3.61c.25.14.49.28.72.43L14.59,22.8"/><path class="cls-2" d="M18.8,24.51a7.87,7.87,0,0,1-3.21-1.13l1.57-5.45A5.33,5.33,0,0,0,20.56,19a8.82,8.82,0,0,0,3-.57L22,23.76a8.5,8.5,0,0,1-3.22.75"/><path class="cls-2" d="M18.12,10.48h0L16.51,16m0,0a5.32,5.32,0,0,0-3-1.08h0a8.12,8.12,0,0,0-3,.71L12,10.15a8.2,8.2,0,0,1,2.93-.69h0a5.48,5.48,0,0,1,1.27.14,9.41,9.41,0,0,1,1.91.88"/><path class="cls-2" d="M20.92,17.76a6,6,0,0,1-3.38-1.06h0l1.59-5.5a5.42,5.42,0,0,0,3.36,1.12,7.58,7.58,0,0,0,3-.69L23.94,17h0a7,7,0,0,1-3,.73"/></g></g></svg>