<svg xmlns="http://www.w3.org/2000/svg" viewBox="0 0 34.02 34.02"><defs><style>.cls-1{fill:#8d58a0;}.cls-2{fill:#fff;}</style></defs><title>yahoo</title><g id="Layer_2" data-name="Layer 2"><g id="Capa_1" data-name="Capa 1"><path class="cls-1" d="M17,34A17,17,0,1,0,0,17,17,17,0,0,0,17,34"/><path class="cls-2" d="M22.2,14.44l.39-.08h1.23l.19-.28h0l.47-.69h0l0-.07H17.88l.26,1H20L16.9,17.11c-.62-.86-2.08-2.65-3.1-4.14h2.29v-.8l0-.18h0v-.07H8.5v1h2.25a39.09,39.09,0,0,1,4.35,5.26A12.23,12.23,0,0,1,15,21.09c-.33.35-1.82.26-2.19.28l-.12.71c.66,0,2.8-.05,3.47-.05,1.31,0,3.62,0,3.94,0l0-.75c-.33-.06-2.14,0-2.39-.06a28.2,28.2,0,0,1-.06-3C18,17.49,21.79,14.55,22.2,14.44Z"/><path class="cls-2" d="M23.31,20.15l1,.08,1.19-4.58c-.2,0-2-.18-2.23-.22Z"/><polygon class="cls-2" points="23.13 20.89 23.14 22 23.65 22.05 24.21 22.09 24.37 21 23.79 20.97 23.13 20.89"/></g></g></svg>