<svg xmlns="http://www.w3.org/2000/svg" viewBox="0 0 34.02 34.02"><defs><style>.cls-1{fill:#d5e080;}.cls-2{fill:#fff;}</style></defs><title>Asset 17</title><g id="Layer_2" data-name="Layer 2"><g id="Capa_1" data-name="Capa 1"><rect class="cls-1" width="34.02" height="34.02"/><path class="cls-2" d="M19.54,10l.18-.28.18-.27.41-.62A.16.16,0,0,0,20,8.63l-.44.66-.19.28-.19.28a5.5,5.5,0,0,0-3.92,0l-.19-.28-.18-.28-.44-.66a.16.16,0,0,0-.27.18l.41.62.18.27L15,10a3.74,3.74,0,0,0-2.34,3.29h9.22A3.74,3.74,0,0,0,19.54,10Zm-4.24,2a.49.49,0,1,1,.49-.49A.49.49,0,0,1,15.29,12Zm3.95,0a.49.49,0,1,1,.49-.49A.49.49,0,0,1,19.24,12Z"/><path class="cls-2" d="M12.73,13.93h-.07v7.24a1,1,0,0,0,1,1h.75a1,1,0,0,0,0,.27v2.09a1,1,0,0,0,2,0V22.49a1,1,0,0,0,0-.27h1.83a1,1,0,0,0,0,.27v2.09a1,1,0,0,0,2,0V22.49a1,1,0,0,0,0-.27h.75a1,1,0,0,0,1-1V13.93H12.73Z"/><path class="cls-2" d="M11,13.93a1,1,0,0,0-1,1v4.23a1,1,0,0,0,2,0V14.92A1,1,0,0,0,11,13.93Z"/><path class="cls-2" d="M23.52,13.93a1,1,0,0,0-1,1v4.23a1,1,0,0,0,2,0V14.92A1,1,0,0,0,23.52,13.93Z"/></g></g></svg>