<svg xmlns="http://www.w3.org/2000/svg" viewBox="0 0 34.02 34.02"><defs><style>.cls-1{fill:#f39200;}.cls-2{fill:#fff;}</style></defs><title>rss</title><g id="Layer_2" data-name="Layer 2"><g id="Capa_1" data-name="Capa 1"><rect class="cls-1" width="34.02" height="34.02"/><path id="RSS" class="cls-2" d="M12.37,21.66a2.24,2.24,0,0,1,0,3.18h0a2.25,2.25,0,1,1-3.19-3.18h0a2.25,2.25,0,0,1,3.19,0Zm0,0h0ZM9.17,24.84h0ZM8.51,14.29v3.25a8,8,0,0,1,8,8h3.26A11.25,11.25,0,0,0,8.51,14.29Zm0-5.79v3.25A13.78,13.78,0,0,1,22.26,25.52h3.25a17,17,0,0,0-17-17Z"/></g></g></svg>