<svg xmlns="http://www.w3.org/2000/svg" viewBox="0 0 34.02 34.02"><defs><style>.cls-1{fill:#3fc0f0;}.cls-2{fill:#fff;}</style></defs><title>Asset 11</title><g id="Layer_2" data-name="Layer 2"><g id="Capa_1" data-name="Capa 1"><rect class="cls-1" width="34.02" height="34.02"/><path class="cls-2" d="M16.31,12.74a2.68,2.68,0,0,1,.48,1.6,2.35,2.35,0,0,1-.49,1.55,2.52,2.52,0,0,1-.8.6,2.36,2.36,0,0,1,1.21.93A2.78,2.78,0,0,1,17.13,19a3.06,3.06,0,0,1-.47,1.68A2.9,2.9,0,0,1,14.73,22a7.24,7.24,0,0,1-1.49.14H8.51V11.62h5.08A3.22,3.22,0,0,1,16.31,12.74Zm-5.71.71v2.32h2.56a2.12,2.12,0,0,0,1.11-.26,1,1,0,0,0,.43-.92.94.94,0,0,0-.56-1,4,4,0,0,0-1.24-.16Zm0,4.06v2.8h2.55a2.49,2.49,0,0,0,1.06-.18,1.32,1.32,0,0,0,.69-1.31,1.13,1.13,0,0,0-.67-1.13,2.66,2.66,0,0,0-1.05-.18Zm12.88-3a3.14,3.14,0,0,1,1.34,1.15,3.77,3.77,0,0,1,.62,1.61,10,10,0,0,1,.07,1.54H19.85a1.86,1.86,0,0,0,.81,1.64,2.06,2.06,0,0,0,1.12.29,1.72,1.72,0,0,0,1.13-.36,1.67,1.67,0,0,0,.42-.54h2.08a2.55,2.55,0,0,1-.75,1.41,3.78,3.78,0,0,1-2.92,1.13,4.22,4.22,0,0,1-2.74-1,3.76,3.76,0,0,1-1.19-3.11,4.22,4.22,0,0,1,1.07-3.1,3.75,3.75,0,0,1,2.78-1.08A4.42,4.42,0,0,1,23.49,14.52Zm-3,1.76a2.12,2.12,0,0,0-.54,1.2h3.5a1.7,1.7,0,0,0-.54-1.23,1.79,1.79,0,0,0-1.21-.42A1.61,1.61,0,0,0,20.45,16.28Zm3.44-4.16h-4.5v1.31h4.5Z"/></g></g></svg>