<svg xmlns="http://www.w3.org/2000/svg" viewBox="0 0 34.02 34.02"><defs><style>.cls-1{fill:#90d3f1;}.cls-2{fill:#fff;}</style></defs><title>dropbox</title><g id="Layer_2" data-name="Layer 2"><g id="Capa_1" data-name="Capa 1"><rect class="cls-1" width="34.02" height="34.02"/><polygon class="cls-2" points="8.49 17.89 13.49 21.16 16.99 18.24 11.95 15.12 8.49 17.89"/><polygon class="cls-2" points="13.49 9.09 8.49 12.35 11.95 15.12 16.99 12.01 13.49 9.09"/><polygon class="cls-2" points="25.5 12.35 20.49 9.09 16.99 12.01 22.04 15.12 25.5 12.35"/><polygon class="cls-2" points="16.99 18.24 20.49 21.16 25.5 17.89 22.04 15.12 16.99 18.24"/><polygon class="cls-2" points="17 18.86 13.49 21.78 11.99 20.8 11.99 21.9 17 24.9 22.02 21.9 22.02 20.8 20.52 21.78 17 18.86"/></g></g></svg>