<svg xmlns="http://www.w3.org/2000/svg" viewBox="0 0 34.02 34.02"><defs><style>.cls-1{fill:#cdcccc;}.cls-2{fill:#fff;}</style></defs><title>googledrive</title><g id="Layer_2" data-name="Layer 2"><g id="Capa_1" data-name="Capa 1"><rect class="cls-1" width="34.02" height="34.02"/><polygon class="cls-2" points="14.47 20.11 14.38 20.11 14.33 20.19 12.03 24.22 11.89 24.47 12.17 24.47 22.91 24.47 23.01 24.47 23.06 24.39 25.36 20.36 25.5 20.11 25.22 20.11 14.47 20.11"/><polygon class="cls-2" points="20.44 19.09 20.48 19.18 20.58 19.18 25.22 19.16 25.5 19.16 25.36 18.91 19.99 9.61 19.94 9.52 19.85 9.52 15.21 9.54 14.93 9.54 15.06 9.79 20.44 19.09"/><polygon class="cls-2" points="16.58 14.36 16.53 14.28 14.19 10.27 14.05 10.03 13.91 10.27 8.54 19.58 8.49 19.66 8.54 19.74 10.88 23.75 11.02 24 11.16 23.75 16.53 14.44 16.58 14.36"/></g></g></svg>