<svg xmlns="http://www.w3.org/2000/svg" viewBox="0 0 34.02 34.02"><defs><style>.cls-1{fill:#7f807e;}.cls-2{fill:#fff;fill-rule:evenodd;}</style></defs><title>Asset 10</title><g id="Layer_2" data-name="Layer 2"><g id="Capa_1" data-name="Capa 1"><rect class="cls-1" width="34.02" height="34.02"/><path class="cls-2" d="M24.32,21A12.23,12.23,0,0,1,23.22,23c-.72,1.09-1.73,2.45-3,2.46s-1.4-.73-2.91-.72-1.83.73-2.94.72-2.21-1.24-2.93-2.33c-2-3.05-2.22-6.64-1-8.55A4.44,4.44,0,0,1,14,12.49c1.33,0,2.16.73,3.26.73s1.71-.73,3.25-.73a4.34,4.34,0,0,1,3.27,1.72,3.74,3.74,0,0,0,.5,6.77Zm-4.93-9.72a3.73,3.73,0,0,0,.83-2.76,4,4,0,0,0-2.6,1.4,3.46,3.46,0,0,0-.85,2.69,3.4,3.4,0,0,0,2.62-1.33Z"/></g></g></svg>