<svg xmlns="http://www.w3.org/2000/svg" viewBox="0 0 34.02 34.02"><defs><style>.linkedincontainer{fill:#1385c8;}.cls-2{fill:#fff;}</style></defs><title>linkedin</title><g id="Layer_2" data-name="Layer 2"><g id="Capa_1" data-name="Capa 1"><rect class="linkedincontainer" width="34.02" height="34.02"/><path class="cls-2" d="M12.23,24.12H8.92V13.51h3.32ZM10.49,12.18h0a1.84,1.84,0,0,1-2-1.84,1.86,1.86,0,0,1,2-1.84,1.85,1.85,0,1,1,0,3.68Zm15,11.94H21.74V18.63c0-1.44-.59-2.42-1.88-2.42a1.9,1.9,0,0,0-1.79,1.3,2.44,2.44,0,0,0-.08.87v5.74H14.26s0-9.73,0-10.61H18v1.67a3.4,3.4,0,0,1,3.31-1.77c2.36,0,4.21,1.53,4.21,4.81Z"/></g></g></svg>