<svg xmlns="http://www.w3.org/2000/svg" viewBox="0 0 34.02 34.02"><defs><style>.cls-1{fill:#1e96d3;}.cls-2{fill:#fff;}</style></defs><title>Asset 14</title><g id="Layer_2" data-name="Layer 2"><g id="Capa_1" data-name="Capa 1"><rect class="cls-1" width="34.02" height="34.02"/><path class="cls-2" d="M25,18.84A8.11,8.11,0,0,0,15.7,9.1a4.7,4.7,0,0,0-6.56,6.36,8.12,8.12,0,0,0,9.43,9.61A4.71,4.71,0,0,0,25,18.84ZM21.25,21a3.69,3.69,0,0,1-1.65,1.25,6.6,6.6,0,0,1-2.53.45,6.19,6.19,0,0,1-2.9-.61,3.79,3.79,0,0,1-1.34-1.19,2.58,2.58,0,0,1-.52-1.47,1,1,0,0,1,.34-.76,1.19,1.19,0,0,1,.85-.32,1.07,1.07,0,0,1,.71.25,1.87,1.87,0,0,1,.48.7,4.07,4.07,0,0,0,.47.83,1.8,1.8,0,0,0,.68.53,2.8,2.8,0,0,0,1.18.21,2.86,2.86,0,0,0,1.63-.43,1.19,1.19,0,0,0,.6-1,1,1,0,0,0-.31-.77,2.24,2.24,0,0,0-.87-.48c-.37-.11-.87-.24-1.49-.37a11.82,11.82,0,0,1-2.13-.64,3.5,3.5,0,0,1-1.39-1,2.54,2.54,0,0,1-.52-1.63,2.63,2.63,0,0,1,.55-1.64,3.41,3.41,0,0,1,1.57-1.09A6.89,6.89,0,0,1,17,11.39a6.45,6.45,0,0,1,1.89.25,4.17,4.17,0,0,1,1.34.67,2.9,2.9,0,0,1,.79.89,2,2,0,0,1,.25.92,1.16,1.16,0,0,1-1.17,1.13,1,1,0,0,1-.7-.22,2.64,2.64,0,0,1-.48-.65,2.68,2.68,0,0,0-.73-.9,2.28,2.28,0,0,0-1.35-.31,2.53,2.53,0,0,0-1.41.35.93.93,0,0,0-.5.78.71.71,0,0,0,.16.47,1.45,1.45,0,0,0,.48.37,3.56,3.56,0,0,0,.65.25l1.12.28c.66.14,1.26.3,1.79.47a5.74,5.74,0,0,1,1.39.63,2.77,2.77,0,0,1,.91,1,2.89,2.89,0,0,1,.33,1.43A3.08,3.08,0,0,1,21.25,21Z"/></g></g></svg>