<svg xmlns="http://www.w3.org/2000/svg" viewBox="0 0 34.02 34.02"><defs><style>.cls-1{fill:#9fcd92;}.cls-2{fill:#fff;}</style></defs><title>stumbleupon</title><g id="Layer_2" data-name="Layer 2"><g id="Capa_1" data-name="Capa 1"><rect class="cls-1" width="34.02" height="34.02"/><path class="cls-2" d="M16.55,19.88A2.87,2.87,0,0,0,13.75,17l-.6,0a1.12,1.12,0,0,1-1.07-1,1,1,0,0,1,1-1h3.94a1,1,0,0,1,1,1v3.63A2.91,2.91,0,0,0,21,22.56h.48a2.91,2.91,0,0,0,2.91-2.91V7.46l-.21,0H22.47V19.65a1,1,0,0,1-1,1H21a1,1,0,0,1-1-1V16A2.92,2.92,0,0,0,17,13.11H13.1a2.88,2.88,0,0,0-2.91,2.83,3,3,0,0,0,2.86,2.94l.6,0a1,1,0,0,1,1,.9,1,1,0,0,1-1.08.86H7.36v1.89h6.22A2.91,2.91,0,0,0,16.55,19.88Z"/></g></g></svg>