<svg xmlns="http://www.w3.org/2000/svg" viewBox="0 0 34.02 34.02"><defs><style>.cls-1{fill:#8cd0de;}.cls-2{fill:#fff;}</style></defs><title>Asset 12</title><g id="Layer_2" data-name="Layer 2"><g id="Capa_1" data-name="Capa 1"><rect class="cls-1" width="34.02" height="34.02"/><path class="cls-2" d="M25.51,13.46Q25.4,15.94,22,20.24q-3.47,4.5-5.87,4.5-1.49,0-2.51-2.74l-1.37-5q-.76-2.75-1.64-2.75a5.26,5.26,0,0,0-1.33.8l-.8-1q1.26-1.1,2.48-2.21a5.61,5.61,0,0,1,2.52-1.53q2-.19,2.44,2.71.49,3.13.68,3.89.57,2.59,1.26,2.59.53,0,1.6-1.68a6.59,6.59,0,0,0,1.14-2.56q.15-1.45-1.14-1.45a3.24,3.24,0,0,0-1.26.27q1.26-4.08,4.8-4Q25.66,10.14,25.51,13.46Z"/></g></g></svg>