<svg xmlns="http://www.w3.org/2000/svg" viewBox="0 0 34.02 34.02"><defs><style>.cls-1{fill:#57addd;}.cls-2{fill:#fff;}</style></defs><title>wordpress</title><g id="Layer_2" data-name="Layer 2"><g id="Capa_1" data-name="Capa 1"><rect class="cls-1" width="34.02" height="34.02"/><path class="cls-2" d="M8.49,17a8.5,8.5,0,0,0,4.79,7.65L9.23,13.53A8.47,8.47,0,0,0,8.49,17Zm14.25-.43a4.48,4.48,0,0,0-.7-2.35,4,4,0,0,1-.83-2,1.47,1.47,0,0,1,1.43-1.51h.11a8.5,8.5,0,0,0-12.85,1.6h.55c.89,0,2.27-.11,2.27-.11a.35.35,0,0,1,.05.7s-.46.05-1,.08l3.1,9.21,1.86-5.58L15.42,13c-.46,0-.89-.08-.89-.08a.35.35,0,0,1,.05-.7s1.4.11,2.24.11,2.27-.11,2.27-.11a.35.35,0,0,1,.05.7s-.46.05-1,.08l3.07,9.14.85-2.83A8,8,0,0,0,22.74,16.57Zm-5.59,1.17-2.55,7.42A8.5,8.5,0,0,0,19.82,25a.72.72,0,0,1-.06-.12Zm7.31-4.83a6.36,6.36,0,0,1,.06.88,8,8,0,0,1-.65,3l-2.6,7.51a8.51,8.51,0,0,0,3.19-11.43Z"/></g></g></svg>