<svg xmlns="http://www.w3.org/2000/svg" viewBox="0 0 34.02 34.02"><defs><style>.cls-1{fill:#e9644b;}.cls-2{fill:#fff;}</style></defs><title>Asset 9</title><g id="Layer_2" data-name="Layer 2"><g id="Capa_1" data-name="Capa 1"><rect class="cls-1" width="34.02" height="34.02"/><path class="cls-2" d="M20.49,11.27v3.24a1.15,1.15,0,0,1-.27.23.52.52,0,0,1-.25.09.21.21,0,0,1-.17-.07.33.33,0,0,1-.06-.22V11.27h-.87v3.57a.9.9,0,0,0,.15.58.55.55,0,0,0,.45.19,1.18,1.18,0,0,0,.51-.13,1.92,1.92,0,0,0,.5-.4v.47h.87V11.27Zm-2.67.21a1.26,1.26,0,0,0-.89-.32,1.45,1.45,0,0,0-1,.3,1,1,0,0,0-.35.79v2.21a1.14,1.14,0,0,0,.34.87,1.49,1.49,0,0,0,1.85,0,1.08,1.08,0,0,0,.34-.86v-2.2A1,1,0,0,0,17.83,11.47Zm-.55,3.07a.35.35,0,0,1-.1.27.38.38,0,0,1-.28.1.34.34,0,0,1-.27-.1.37.37,0,0,1-.09-.27V12.21a.27.27,0,0,1,.1-.22.36.36,0,0,1,.26-.09.44.44,0,0,1,.28.09.26.26,0,0,1,.1.22ZM14.57,9.75,14,12.06h-.07l-.63-2.32h-1l1.17,3.5v2.29h1v-2.4l1.14-3.39Zm6.82,10.2a.59.59,0,0,1,.08.34v.39h-.68v-.39a.53.53,0,0,1,.08-.34.31.31,0,0,1,.27-.11A.3.3,0,0,1,21.38,19.94Zm-2.69,0a.29.29,0,0,0-.24-.1.38.38,0,0,0-.16,0,.67.67,0,0,0-.16.12v2.42a.64.64,0,0,0,.19.14.47.47,0,0,0,.18,0,.24.24,0,0,0,.21-.09.41.41,0,0,0,.07-.27v-2A.42.42,0,0,0,18.69,19.93Zm0,0a.29.29,0,0,0-.24-.1.38.38,0,0,0-.16,0,.67.67,0,0,0-.16.12v2.42a.64.64,0,0,0,.19.14.47.47,0,0,0,.18,0,.24.24,0,0,0,.21-.09.41.41,0,0,0,.07-.27v-2A.42.42,0,0,0,18.69,19.93Zm4.4-3H10.94a2.44,2.44,0,0,0-2.43,2.43v2.48a2.44,2.44,0,0,0,2.43,2.43H23.09a2.44,2.44,0,0,0,2.43-2.43V19.37A2.44,2.44,0,0,0,23.09,16.93Zm-8.88,1.71H13.3v4.49h-.87V18.64h-.9v-.76h2.68Zm2.55,4.49H16V22.7a1.44,1.44,0,0,1-.45.36.91.91,0,0,1-.45.13.49.49,0,0,1-.41-.18.84.84,0,0,1-.13-.51V19.25h.77v3a.31.31,0,0,0,.05.2.17.17,0,0,0,.15.06.38.38,0,0,0,.21-.09A.78.78,0,0,0,16,22.2V19.25h.78Zm2.81-.81a1,1,0,0,1-.18.63.65.65,0,0,1-.53.22.89.89,0,0,1-.4-.08,1.09,1.09,0,0,1-.33-.27v.3h-.78V17.88h.78v1.69a1.22,1.22,0,0,1,.33-.27.8.8,0,0,1,.36-.09.67.67,0,0,1,.56.25,1.14,1.14,0,0,1,.2.72Zm2.69-1H20.78V22a.82.82,0,0,0,.07.42.29.29,0,0,0,.27.12.31.31,0,0,0,.27-.1.8.8,0,0,0,.08-.44v-.18h.81V22a1.22,1.22,0,0,1-.3.9,1.12,1.12,0,0,1-.87.3,1.06,1.06,0,0,1-.82-.32A1.26,1.26,0,0,1,20,22V20.29a1.09,1.09,0,0,1,.33-.82,1.17,1.17,0,0,1,.85-.32,1.08,1.08,0,0,1,.81.3,1.16,1.16,0,0,1,.29.84Zm-3.82-1.47a.38.38,0,0,0-.16,0,.67.67,0,0,0-.16.12v2.42a.64.64,0,0,0,.19.14.47.47,0,0,0,.18,0,.24.24,0,0,0,.21-.09.41.41,0,0,0,.07-.27v-2a.42.42,0,0,0-.09-.29A.29.29,0,0,0,18.45,19.82Zm.24.1a.29.29,0,0,0-.24-.1.38.38,0,0,0-.16,0,.67.67,0,0,0-.16.12v2.42a.64.64,0,0,0,.19.14.47.47,0,0,0,.18,0,.24.24,0,0,0,.21-.09.41.41,0,0,0,.07-.27v-2A.42.42,0,0,0,18.69,19.93Zm0,0a.29.29,0,0,0-.24-.1.38.38,0,0,0-.16,0,.67.67,0,0,0-.16.12v2.42a.64.64,0,0,0,.19.14.47.47,0,0,0,.18,0,.24.24,0,0,0,.21-.09.41.41,0,0,0,.07-.27v-2A.42.42,0,0,0,18.69,19.93Z"/></g></g></svg>